# AST/ASF file generated using VICON BodyLanguage
# -----------------------------------------------
:version 1.10
:name VICON
:units
  mass 1.0
  length 0.45
  angle deg
:documentation
   .ast/.asf automatically generated from VICON data using
   VICON BodyBuilder and BodyLanguage model FoxedUp or BRILLIANT.MOD
:root
   order TX TY TZ RX RY RZ
   axis XYZ
   position 0 0 0  
   orientation 0 0 0 
:bonedata
  begin
     id 1 
     name lhipjoint
     direction 0.627457 -0.725269 0.283342 
     length 2.53237 
     axis 0 0 0  XYZ
  end
  begin
     id 2 
     name lfemur
     direction 0.34202 -0.939693 0  
     length 7.32496  
     axis 0 0 20  XYZ
    dof rx ry rz
    limits (-160.0 20.0)
           (-70.0 70.0)
           (-60.0 70.0)
  end
  begin
     id 3 
     name ltibia
     direction 0.34202 -0.939693 0   
     length 7.69674   
     axis 0 0 20   XYZ
    dof rx
    limits (-10.0 170.0)
  end
  begin
     id 4 
     name lfoot
     direction 0.127289 -0.349722 0.928166   
     length 1.8612   
     axis -90 7.62852e-016 20   XYZ
    dof rx rz
    limits (-45.0 90.0)
           (-70.0 20.0)
  end
  begin
     id 5 
     name ltoes
     direction 1.53561e-011 -4.21864e-011 1   
     length 0.925608   
     axis -90 7.62852e-016 20   XYZ
    dof rx
    limits (-90.0 20.0)
  end
  begin
     id 6 
     name rhipjoint
     direction -0.609094 -0.738725 0.288599   
     length 2.48624  
     axis 0 0 0  XYZ 
  end
  begin
     id 7 
     name rfemur
     direction -0.34202 -0.939693 0   
     length 7.44259   
     axis 0 0 -20   XYZ
    dof rx ry rz
    limits (-160.0 20.0)
           (-70.0 70.0)
           (-70.0 60.0)
  end
  begin
     id 8 
     name rtibia
     direction -0.34202 -0.939693 0   
     length 7.7781   
     axis 0 0 -20   XYZ
    dof rx
    limits (-10.0 170.0)
 end
 begin
     id 9 
     name rfoot
     direction -0.107015 -0.294021 0.949789   
     length 2.14741  
     axis -90 -7.62852e-016 -20   XYZ
    dof rx rz
    limits (-45.0 90.0)
           (-20.0 70.0)
  end
  begin
     id 10 
     name rtoes
     direction -1.53497e-011 -4.21924e-011 1   
     length 1.0706   
     axis -90 -7.62852e-016 -20   XYZ
    dof rx
    limits (-90.0 20.0)
  end
  begin
     id 11 
     name lowerback
     direction -0.0142066 0.998112 -0.0597545   
     length 1.86627   
     axis 0 0 0   XYZ
    dof rx ry rz
    limits (-20.0 45.0)
           (-30.0 30.0)
           (-30.0 30.0)
  end
  begin
     id 12 
     name upperback
     direction 0.00547294 0.999744 0.0219437   
     length 1.86272   
     axis 0 0 0   XYZ
    dof rx ry rz
    limits (-20.0 45.0)
           (-30.0 30.0)
           (-30.0 30.0)
  end
  begin
     id 13 
     name thorax
     direction 0.0116162 0.998704 0.0495538   
     length 1.8703   
     axis 0 0 0   XYZ
    dof rx ry rz
    limits (-20.0 45.0)
           (-30.0 30.0)
           (-30.0 30.0)
  end
  begin
     id 14 
     name lowerneck
     direction -0.0106574 0.998739 0.0490586   
     length 1.8074   
     axis 0 0 0   XYZ
    dof rx ry rz
    limits (-20.0 45.0)
           (-30.0 30.0)
           (-30.0 30.0)
  end
  begin
     id 15 
     name upperneck
     direction 0.030527 0.976587 -0.212944   
     length 1.80681   
     axis 0 0 0   XYZ
    dof rx ry rz
    limits (-20.0 45.0)
           (-30.0 30.0)
           (-30.0 30.0)
  end
  begin
     id 16
     name head
     direction 0.00869225 0.997035 -0.0764531  
     length 1.8313  
     axis 0 0 0   XYZ
    dof rx ry rz
    limits (-20.0 45.0)
           (-30.0 30.0)
           (-30.0 30.0)
  end
  begin
     id 17 
     name lclavicle
     direction 0.915958 0.399447 0.0382386  
     length 3.78965  
     axis 0 0 0   XYZ
    dof ry rz
    limits (-20.0 10.0)
           (0.0 20.0)
  end
  begin
     id 18 
     name lhumerus
     direction 1 -4.48967e-011 3.19303e-027   
     length 4.78095   
     axis -180 -30 -90   XYZ
    dof rx ry rz
    limits (-60.0 90.0)
           (-90.0 90.0)
           (-90.0 90.0)
  end
  begin
     id 19
     name lradius
     direction 1 -4.48967e-011 -3.77974e-027   
     length 3.58615   
     axis -180 -30 -90   XYZ
    dof rx
    limits (-10.0 170.0)
  end
  begin
     id 20
     name lwrist
     direction 1 -4.48927e-011 1.2807e-027   
     length 1.79307   
     axis 1.91374e-015 90 90   XYZ
    dof ry
    limits (-180.0 0.0)
 end
  begin
     id 21 
     name lhand
     direction 1 -4.49036e-011 2.5614e-027   
     length 0.659812   
     axis -1.63439e-015 90 90   XYZ
    dof rx rz
    limits (-90.0 90.0)
           (-45.0 45.0)
  end
  begin
     id 22 
     name lfingers
     direction 1 -4.49052e-011 5.1228e-027   
     length 0.531957   
     axis -3.26879e-015 90 90   XYZ
    dof rx
    limits (0.0 90.0)
  end
  begin
     id 23
     name lthumb
     direction 0.707107 -6.35012e-011 0.707107   
     length 0.763787   
     axis -90 45 2.85299e-015   XYZ
    dof rx rz
    limits (-45.0 45.0)
           (-45.0 45.0)
  end
  begin
     id 24 
     name rclavicle
     direction -0.895351 0.435135 0.0948887   
     length 3.70497  
     axis 0 0 0   XYZ 
    dof ry rz
    limits (-10.0 20.0)
           (-20.0 0.0)
  end
  begin
     id 25 
     name rhumerus
     direction -1 -4.48971e-011 2.38946e-027  
     length 4.48913   
     axis -180 30 90   XYZ
    dof rx ry rz
    limits (-90.0 60.0)
           (-90.0 90.0)
           (-90.0 90.0)
  end
  begin
     id 26 
     name rradius
     direction -1 -4.4895e-011 4.38668e-027   
     length 3.7051   
     axis -180 30 90   XYZ
    dof rx
    limits (-10.0 170.0)
  end
  begin
     id 27 
     name rwrist
     direction -1 -4.49007e-011 1.2807e-027   
     length 1.85255   
     axis 1.91374e-015 -90 -90   XYZ
    dof ry
    limits (-180.0 0.0)
  end
  begin
     id 28
     name rhand
     direction -1 -4.48851e-011 2.5614e-027   
     length 0.449136   
     axis -1.63439e-015 -90 -90   XYZ
    dof rx rz
    limits (-90.0 90.0)
           (-45.0 45.0)
  end
  begin
     id 29
     name rfingers
     direction -1 -4.49128e-011 5.1228e-027   
     length 0.362105   
     axis -3.26879e-015 -90 -90   XYZ
    dof rx
    limits (0.0 90.0)
  end
  begin
     id 30
     name rthumb
     direction -0.707107 -6.34851e-011 0.707107   
     length 0.519912   
     axis -90 -45 -2.85299e-015   XYZ
    dof rx rz
    limits (-45.0 45.0)
           (-45.0 45.0)
  end
:hierarchy
  begin
    root lhipjoint rhipjoint lowerback
    lhipjoint lfemur
    lfemur ltibia
    ltibia lfoot
    lfoot ltoes
    rhipjoint rfemur
    rfemur rtibia
    rtibia rfoot
    rfoot rtoes
    lowerback upperback
    upperback thorax
    thorax lowerneck lclavicle rclavicle
    lowerneck upperneck
    upperneck head
    lclavicle lhumerus
    lhumerus lradius
    lradius lwrist
    lwrist lhand lthumb
    lhand lfingers
    rclavicle rhumerus
    rhumerus rradius
    rradius rwrist
    rwrist rhand rthumb
    rhand rfingers
  end

#!OML:ASF I:\Actors\actors\Patient Classification 2\Patient 1\Session 1\actor1.ASF
:FULLY-SPECIFIED
:DEGREES
40
root -0.929166 18.6539 6.23941 -1.55467 -3.41319 -2.4663
lowerback 2.0514 0.814061 0.235382
upperback -1.23206 1.10739 0.62777
thorax -2.4212 0.554106 0.466306
lowerneck -9.22286 -0.440981 0.0523283
upperneck 23.5816 -0.938471 1.26679
head 8.88611 -0.308812 0.323882
rclavicle -1.22004e-014 3.97569e-015
rhumerus -49.1954 -6.68641 -84.3426
rradius 41.4679
rwrist 16.9559
rhand -8.40133 -27.268
rfingers 7.12502
rthumb 17.5226 -56.4983
lclavicle -1.22004e-014 3.97569e-015
lhumerus -42.8505 8.69821 87.4125
lradius 37.1519
lwrist -12.5826
lhand -8.52852 -27.0044
lfingers 7.12502
lthumb 17.4002 2.23677
rfemur 0 0 0
rtibia 0
rfoot 0 0
rtoes 0
lfemur -0.793779 -5.44896 -14.8907
ltibia 23.4244
lfoot -25.083 15.4726
ltoes -56.1524
41
root -0.928672 18.6543 6.24073 -1.55611 -3.40187 -2.4379
lowerback 2.05505 0.809678 0.205869
upperback -1.2314 1.10054 0.623009
thorax -2.42299 0.551133 0.478187
lowerneck -9.23176 -0.451213 0.0545846
upperneck 23.5957 -0.947112 1.23974
head 8.89254 -0.315382 0.313427
rclavicle -8.94531e-016 -3.18055e-015
rhumerus -49.1863 -6.69481 -84.3266
rradius 41.4634
rwrist 17.0083
rhand -8.3495 -27.2845
rfingers 7.12502
rthumb 17.5725 -56.5103
lclavicle -8.94531e-016 -3.18055e-015
lhumerus -42.8597 8.68169 87.4261
lradius 37.1636
lwrist -12.5667
lhand -8.7444 -27.469
lfingers 7.12502
lthumb 17.1925 1.79037
rfemur 0 0 0
rtibia 0
rfoot 0 0
rtoes 0
lfemur -0.779772 -5.47142 -14.928
ltibia 23.4043
lfoot -25.1025 15.4624
ltoes -56.1493
42
root -0.928603 18.6546 6.24181 -1.54686 -3.41079 -2.4016
lowerback 2.05104 0.818721 0.174701
upperback -1.22948 1.11136 0.612233
thorax -2.41922 0.556953 0.484222
lowerneck -9.24634 -0.454486 0.0889827
upperneck 23.6003 -0.93831 1.15629
head 8.89621 -0.316751 0.280145
rclavicle 2.69602e-015 4.96962e-015
rhumerus -49.1549 -6.68287 -84.328
rradius 41.4634
rwrist 16.9607
rhand -8.21937 -27.43
rfingers 7.12502
rthumb 17.6977 -56.6446
lclavicle 2.69602e-015 4.96962e-015
lhumerus -42.8365 8.61692 87.4649
lradius 37.1417
lwrist -12.5179
lhand -8.61621 -27.11
lfingers 7.12502
lthumb 17.3158 2.13859
rfemur 0 0 0
rtibia 0
rfoot 0 0
rtoes 0
lfemur -0.776874 -5.5017 -14.9768
ltibia 23.3913
lfoot -25.1483 15.5186
ltoes -56.2273
43
root -0.928278 18.6548 6.2425 -1.5324 -3.42428 -2.37875
lowerback 2.04991 0.824178 0.15882
upperback -1.22764 1.11791 0.602064
thorax -2.41683 0.560389 0.482452
lowerneck -9.27541 -0.440481 0.088073
upperneck 23.622 -0.92029 1.16229
head 8.90906 -0.307481 0.284164
rclavicle 1.60146e-014 1.59028e-014
rhumerus -49.1108 -6.70057 -84.3267
rradius 41.4533
rwrist 16.9141
rhand -8.14765 -27.4559
rfingers 7.12502
rthumb 17.7668 -56.6642
lclavicle 1.60146e-014 1.59028e-014
lhumerus -42.8204 8.57374 87.487
lradius 37.1535
lwrist -12.5009
lhand -8.27521 -26.2794
lfingers 7.12502
lthumb 17.644 2.94007
rfemur 0 0 0
rtibia 0
rfoot 0 0
rtoes 0
lfemur -0.789523 -5.5024 -15.0071
ltibia 23.3893
lfoot -25.1418 15.5521
ltoes -56.2314
44
root -0.927481 18.6545 6.24315 -1.53722 -3.41976 -2.42149
lowerback 2.06701 0.809654 0.206607
upperback -1.22002 1.10023 0.609752
thorax -2.41774 0.550838 0.464105
lowerneck -9.29024 -0.420211 0.0855087
upperneck 23.6398 -0.90535 1.21885
head 8.9182 -0.294703 0.305345
rclavicle -1.40267e-014 -1.98785e-015
rhumerus -49.0766 -6.71418 -84.3307
rradius 41.4364
rwrist 16.9107
rhand -8.22285 -27.3564
rfingers 7.12502
rthumb 17.6944 -56.5713
lclavicle -1.40267e-014 -1.98785e-015
lhumerus -42.8168 8.58921 87.4682
lradius 37.1691
lwrist -12.5116
lhand -8.06938 -25.8315
lfingers 7.12502
lthumb 17.8421 3.37002
rfemur 0 0 0
rtibia 0
rfoot 0 0
rtoes 0
lfemur -0.783357 -5.52664 -14.9667
ltibia 23.3939
lfoot -25.1309 15.5442
ltoes -56.1756
45
root -0.927071 18.6534 6.24386 -1.56494 -3.40776 -2.46445
lowerback 2.1016 0.794882 0.251776
upperback -1.20705 1.08227 0.619225
thorax -2.42309 0.5412 0.448856
lowerneck -9.25848 -0.410591 0.102531
upperneck 23.6151 -0.897163 1.2293
head 8.90366 -0.288586 0.306868
rclavicle -1.53313e-014 1.59028e-015
rhumerus -49.0589 -6.69456 -84.3444
rradius 41.4224
rwrist 16.8884
rhand -8.28853 -27.2781
rfingers 7.12502
rthumb 17.6312 -56.4987
lclavicle -1.53313e-014 1.59028e-015
lhumerus -42.7967 8.62016 87.4384
lradius 37.1353
lwrist -12.5204
lhand -8.0255 -25.8407
lfingers 7.12502
lthumb 17.8843 3.35698
rfemur 0 0 0
rtibia 0
rfoot 0 0
rtoes 0
lfemur -0.752808 -5.53953 -14.9212
ltibia 23.4014
lfoot -25.1438 15.5339
ltoes -56.1794
46
root -0.927527 18.6536 6.24475 -1.56077 -3.41659 -2.45508
lowerback 2.09231 0.796337 0.23177
upperback -1.19855 1.08343 0.617766
thorax -2.40947 0.542097 0.458727
lowerneck -9.22171 -0.409719 0.0983971
upperneck 23.5708 -0.896008 1.23642
head 8.88154 -0.288075 0.310104
rclavicle 1.84621e-014 -1.59028e-014
rhumerus -49.0485 -6.70366 -84.3426
rradius 41.4292
rwrist 16.9151
rhand -8.30183 -27.2225
rfingers 7.12502
rthumb 17.6184 -56.4443
lclavicle 1.84621e-014 -1.59028e-014
lhumerus -42.7793 8.64692 87.4125
lradius 37.12
lwrist -12.5348
lhand -8.10971 -26.1694
lfingers 7.12502
lthumb 17.8033 3.03561
rfemur 0 0 0
rtibia 0
rfoot 0 0
rtoes 0
lfemur -0.758582 -5.52411 -14.9273
ltibia 23.4102
lfoot -25.1662 15.5508
ltoes -56.2155
47
root -0.927368 18.6545 6.24662 -1.53822 -3.43539 -2.44652
lowerback 2.054 0.804641 0.227961
upperback -1.19399 1.09397 0.611343
thorax -2.38325 0.547378 0.454456
lowerneck -9.18702 -0.407904 0.100335
upperneck 23.5249 -0.894695 1.24392
head 8.85925 -0.286898 0.31245
rclavicle 1.52691e-014 -1.21259e-014
rhumerus -49.023 -6.68806 -84.3576
rradius 41.4268
rwrist 16.9135
rhand -8.34843 -27.1636
rfingers 7.12502
rthumb 17.5736 -56.3893
lclavicle 1.52691e-014 -1.21259e-014
lhumerus -42.8005 8.63512 87.4028
lradius 37.1531
lwrist -12.5289
lhand -8.24653 -26.4891
lfingers 7.12502
lthumb 17.6716 2.72781
rfemur 0 0 0
rtibia 0
rfoot 0 0
rtoes 0
lfemur -0.774553 -5.51996 -14.9401
ltibia 23.4137
lfoot -25.2008 15.5855
ltoes -56.2566
48
root -0.925788 18.6542 6.24839 -1.53387 -3.44957 -2.43505
lowerback 2.04318 0.806613 0.245774
upperback -1.18846 1.09671 0.597096
thorax -2.37087 0.548346 0.429969
lowerneck -9.17635 -0.401441 0.102323
upperneck 23.5206 -0.889607 1.25955
head 8.8558 -0.282799 0.317944
rclavicle 1.55922e-014 8.74653e-015
rhumerus -48.9722 -6.61612 -84.3995
rradius 41.3854
rwrist 16.8964
rhand -8.34019 -27.1471
rfingers 7.12502
rthumb 17.5815 -56.3721
lclavicle 1.55922e-014 8.74653e-015
lhumerus -42.8313 8.59904 87.4029
lradius 37.1801
lwrist -12.4909
lhand -8.1607 -26.1864
lfingers 7.12502
lthumb 17.7542 3.02305
rfemur 0 0 0
rtibia 0
rfoot 0 0
rtoes 0
lfemur -0.765566 -5.54544 -14.9689
ltibia 23.4074
lfoot -25.2271 15.6138
ltoes -56.241
49
root -0.924786 18.6535 6.2494 -1.52388 -3.45935 -2.41999
lowerback 2.0301 0.798597 0.237182
upperback -1.18195 1.08543 0.58817
thorax -2.35674 0.542783 0.426342
lowerneck -9.2014 -0.392968 0.107429
upperneck 23.5569 -0.882232 1.27095
head 8.87299 -0.277458 0.321709
rclavicle -1.37783e-014 7.95139e-015
rhumerus -48.9493 -6.57044 -84.4241
rradius 41.3853
rwrist 16.9545
rhand -8.26982 -27.2026
rfingers 7.12502
rthumb 17.6492 -56.4215
lclavicle -1.37783e-014 7.95139e-015
lhumerus -42.8273 8.60493 87.3844
lradius 37.1794
lwrist -12.476
lhand -8.17425 -26.2725
lfingers 7.12502
lthumb 17.7412 2.93818
rfemur 0 0 0
rtibia 0
rfoot 0 0
rtoes 0
lfemur -0.76932 -5.56068 -14.9939
ltibia 23.3985
lfoot -25.2116 15.6328
ltoes -56.1793
50
root -0.925383 18.6534 6.25156 -1.50565 -3.4631 -2.41485
lowerback 2.00845 0.785535 0.193434
upperback -1.18483 1.06681 0.599122
thorax -2.34842 0.534292 0.463127
lowerneck -9.23888 -0.383033 0.132487
upperneck 23.6162 -0.869501 1.25067
head 8.90023 -0.270953 0.311906
rclavicle -2.97929e-014 7.95139e-016
rhumerus -48.9631 -6.5155 -84.4361
rradius 41.4117
rwrist 16.9756
rhand -8.25032 -27.2771
rfingers 7.12502
rthumb 17.668 -56.4944
lclavicle -2.97929e-014 7.95139e-016
lhumerus -42.83 8.62554 87.3663
lradius 37.1815
lwrist -12.4933
lhand -8.43792 -27.0419
lfingers 7.12502
lthumb 17.4874 2.19158
rfemur 0 0 0
rtibia 0
rfoot 0 0
rtoes 0
lfemur -0.777516 -5.52913 -14.9895
ltibia 23.3872
lfoot -25.1641 15.6261
ltoes -56.156
51
root -0.926001 18.654 6.25491 -1.49323 -3.47727 -2.42393
lowerback 2.0053 0.783172 0.161283
upperback -1.1974 1.06316 0.617273
thorax -2.36049 0.533146 0.499838
lowerneck -9.27708 -0.372907 0.16466
upperneck 23.6905 -0.856857 1.22569
head 8.93272 -0.264221 0.299318
rclavicle 4.50993e-015 7.7526e-015
rhumerus -48.9585 -6.47709 -84.432
rradius 41.3833
rwrist 16.9452
rhand -8.23278 -27.3034
rfingers 7.12502
rthumb 17.6848 -56.5192
lclavicle 4.50993e-015 7.7526e-015
lhumerus -42.8505 8.58986 87.3868
lradius 37.179
lwrist -12.4583
lhand -8.61919 -27.4215
lfingers 7.12502
lthumb 17.313 1.82733
rfemur 0 0 0
rtibia 0
rfoot 0 0
rtoes 0
lfemur -0.763153 -5.52621 -14.9786
ltibia 23.3685
lfoot -25.1515 15.6237
ltoes -56.1454
52
root -0.925666 18.6547 6.25816 -1.50311 -3.49155 -2.40771
lowerback 2.02152 0.796971 0.134583
upperback -1.19972 1.08092 0.619494
thorax -2.37267 0.542455 0.516092
lowerneck -9.26799 -0.367048 0.20288
upperneck 23.6973 -0.850627 1.20407
head 8.93313 -0.260105 0.286161
rclavicle 8.44835e-016 1.78906e-014
rhumerus -48.9672 -6.52655 -84.3936
rradius 41.3664
rwrist 16.9481
rhand -8.23093 -27.3285
rfingers 7.12502
rthumb 17.6866 -56.5441
lclavicle 8.44835e-016 1.78906e-014
lhumerus -42.8476 8.52782 87.4316
lradius 37.1436
lwrist -12.4127
lhand -8.7596 -27.5178
lfingers 7.12502
lthumb 17.1778 1.74286
rfemur 0 0 0
rtibia 0
rfoot 0 0
rtoes 0
lfemur -0.718543 -5.54596 -15.0099
ltibia 23.3451
lfoot -25.1966 15.6302
ltoes -56.1355
53
root -0.9253 18.6548 6.26023 -1.51427 -3.48711 -2.36267
lowerback 2.043 0.81637 0.0884729
upperback -1.20211 1.10532 0.610702
thorax -2.38812 0.555307 0.53156
lowerneck -9.23041 -0.379161 0.217525
upperneck 23.6686 -0.867453 1.1955
head 8.91618 -0.267827 0.27906
rclavicle 4.72114e-016 1.78906e-015
rhumerus -49.0279 -6.59615 -84.3442
rradius 41.4037
rwrist 16.9861
rhand -8.27701 -27.3827
rfingers 7.12502
rthumb 17.6423 -56.6023
lclavicle 4.72114e-016 1.78906e-015
lhumerus -42.8254 8.42951 87.4899
lradius 37.0979
lwrist -12.3544
lhand -8.89863 -27.5869
lfingers 7.12502
lthumb 17.044 1.68542
rfemur 0 0 0
rtibia 0
rfoot 0 0
rtoes 0
lfemur -0.689228 -5.5514 -15.0664
ltibia 23.3284
lfoot -25.2341 15.6452
ltoes -56.148
54
root -0.925979 18.654 6.26185 -1.51122 -3.46637 -2.34721
lowerback 2.05814 0.827767 0.0626138
upperback -1.21738 1.11976 0.604867
thorax -2.41284 0.56291 0.539098
lowerneck -9.19777 -0.410896 0.189728
upperneck 23.6665 -0.912586 1.2214
head 8.90986 -0.288903 0.287988
rclavicle 1.04983e-014 -1.74931e-014
rhumerus -49.0951 -6.64509 -84.3147
rradius 41.4303
rwrist 17.0274
rhand -8.26699 -27.4235
rfingers 7.12502
rthumb 17.6519 -56.6422
lclavicle 1.04983e-014 -1.74931e-014
lhumerus -42.8367 8.30748 87.5271
lradius 37.1021
lwrist -12.2926
lhand -8.909 -27.5069
lfingers 7.12502
lthumb 17.034 1.76624
rfemur 0 0 0
rtibia 0
rfoot 0 0
rtoes 0
lfemur -0.691195 -5.55416 -15.0773
ltibia 23.3206
lfoot -25.1993 15.6482
ltoes -56.1867
55
root -0.926609 18.6531 6.26394 -1.50533 -3.44781 -2.35089
lowerback 2.06392 0.830817 0.0694287
upperback -1.23103 1.12401 0.598449
thorax -2.4299 0.564881 0.528313
lowerneck -9.1592 -0.438811 0.108254
upperneck 23.655 -0.954915 1.30065
head 8.89967 -0.307997 0.324437
rclavicle -8.48562e-015 1.88845e-014
rhumerus -49.1262 -6.68696 -84.3005
rradius 41.4158
rwrist 17.0448
rhand -8.24417 -27.4116
rfingers 7.12502
rthumb 17.6739 -56.6283
lclavicle -8.48562e-015 1.88845e-014
lhumerus -42.8749 8.26509 87.5101
lradius 37.1328
lwrist -12.3387
lhand -8.89116 -27.4316
lfingers 7.12502
lthumb 17.0512 1.84003
rfemur 0 0 0
rtibia 0
rfoot 0 0
rtoes 0
lfemur -0.696088 -5.541 -15.0654
ltibia 23.321
lfoot -25.1635 15.6214
ltoes -56.2293
